<?xml version="1.0" encoding="UTF-8" standalone="no"?>
<svg
   width="426mm"
   height="423mm"
   viewBox="0 0 426 423"
   version="1.1"
   preserveAspectRatio="xMidYMid meet"
   id="svg2581"
   sodipodi:docname="amogus3.svg"
   inkscape:version="1.2.2 (732a01da63, 2022-12-09)"
   xmlns:inkscape="http://www.inkscape.org/namespaces/inkscape"
   xmlns:sodipodi="http://sodipodi.sourceforge.net/DTD/sodipodi-0.dtd"
   xmlns="http://www.w3.org/2000/svg"
   xmlns:svg="http://www.w3.org/2000/svg">
  <defs
     id="defs2585" />
  <sodipodi:namedview
     id="namedview2583"
     pagecolor="#505050"
     bordercolor="#eeeeee"
     borderopacity="1"
     inkscape:showpageshadow="0"
     inkscape:pageopacity="0"
     inkscape:pagecheckerboard="0"
     inkscape:deskcolor="#505050"
     inkscape:document-units="mm"
     showgrid="false"
     inkscape:zoom="0.32119041"
     inkscape:cx="868.64363"
     inkscape:cy="719.19957"
     inkscape:window-width="1366"
     inkscape:window-height="705"
     inkscape:window-x="-8"
     inkscape:window-y="-8"
     inkscape:window-maximized="1"
     inkscape:current-layer="svg2581" />
  <g
     id="svgGroup"
     stroke-linecap="round"
     fill-rule="evenodd"
     font-size="12px"
     stroke="#000"
     stroke-width="0.25mm"
     fill="none"
     style="fill:none;stroke:#000000;stroke-width:0.25mm"
     transform="matrix(0.70405449,0,0,0.70902079,0.81015187,1.6315724)">
    <path
       d="m 0,213 v 34.688 h 5 v 28.125 H 0 v 28.125 h 5 v 28.125 H 0 v 28.125 h 5 v 28.125 H 0 V 416.438 423 h 37.813 v -5 h 28.125 v 5 h 28.125 v -5 h 28.125 v 5 H 150.313 160 v -34.687 h -5 v -28.125 h 5 v -28.125 h -5 v -28.125 h 5 v -28.125 h -5 v -28.125 h 5 V 219.563 213 h -37.812 v 5 H 94.063 v -5 H 65.938 v 5 H 37.813 v -5 H 9.688 Z"
       id="front_outsideCutPath"
       stroke="#FFFFFF"
       stroke-width="0.1"
       style="stroke:#ffffff;stroke-width:0.1"
       vector-effect="non-scaling-stroke" />
    <path
       d="m 168,213 v 34.688 h -5 v 28.125 h 5 v 28.125 h -5 v 28.125 h 5 v 28.125 h -5 v 28.125 h 5 V 416.438 423 h 30.938 v -5 h 28.125 v 5 H 255.188 258 v -34.687 h 5 v -28.125 h -5 v -28.125 h 5 v -28.125 h -5 v -28.125 h 5 v -28.125 h -5 V 219.563 213 h -30.937 v 5 h -28.125 v -5 h -28.125 z"
       id="left_outsideCutPath"
       stroke="#FFFFFF"
       stroke-width="0.1"
       style="stroke:#ffffff;stroke-width:0.1"
       vector-effect="non-scaling-stroke" />
    <path
       d="m 271,328 v 30.938 h -5 v 28.125 h 5 V 415.188 418 h 32.813 v 5 h 28.125 v -5 h 28.125 v 5 h 28.125 v -5 H 416.313 421 v -30.937 h 5 v -28.125 h -5 V 330.813 328 h -32.812 v -5 h -28.125 v 5 h -28.125 v -5 h -28.125 v 5 h -28.125 z"
       id="top_outsideCutPath"
       stroke="#FFFFFF"
       stroke-width="0.1"
       style="stroke:#ffffff;stroke-width:0.1"
       vector-effect="non-scaling-stroke" />
    <path
       d="M 0,0 V 34.688 H 5 V 62.813 H 0 v 28.125 h 5 v 28.125 H 0 v 28.125 h 5 v 28.125 H 0 V 203.438 210 h 37.813 v -5 h 28.125 v 5 h 28.125 v -5 h 28.125 v 5 H 150.313 160 v -34.687 h -5 v -28.125 h 5 v -28.125 h -5 V 90.938 h 5 V 62.813 h -5 V 34.688 h 5 V 6.563 0 H 122.188 V 5 H 94.063 V 0 H 65.938 V 5 H 37.813 V 0 H 9.688 Z"
       id="back_outsideCutPath"
       stroke="#FFFFFF"
       stroke-width="0.1"
       style="stroke:#ffffff;stroke-width:0.1"
       vector-effect="non-scaling-stroke" />
    <path
       d="m 168,0 v 34.688 h -5 v 28.125 h 5 v 28.125 h -5 v 28.125 h 5 v 28.125 h -5 v 28.125 h 5 V 203.438 210 h 30.938 v -5 h 28.125 v 5 H 255.188 258 v -34.687 h 5 v -28.125 h -5 v -28.125 h 5 V 90.938 h -5 V 62.813 h 5 V 34.688 h -5 V 6.563 0 H 227.063 V 5 H 198.938 V 0 h -28.125 z"
       id="right_outsideCutPath"
       stroke="#FFFFFF"
       stroke-width="0.1"
       style="stroke:#ffffff;stroke-width:0.1"
       vector-effect="non-scaling-stroke" />
    <path
       d="m 271,225 v 30.938 h -5 v 28.125 h 5 V 312.188 315 h 32.813 v 5 h 28.125 v -5 h 28.125 v 5 h 28.125 v -5 H 416.313 421 v -30.937 h 5 v -28.125 h -5 V 227.813 225 h -32.812 v -5 h -28.125 v 5 h -28.125 v -5 h -28.125 v 5 h -28.125 z"
       id="bottom_outsideCutPath"
       stroke="#FFFFFF"
       stroke-width="0.1"
       style="stroke:#ffffff;stroke-width:0.1"
       vector-effect="non-scaling-stroke" />
  </g>
  <rect
     style="fill:#000000;stroke-width:0.252489"
     id="rect1975"
     width="30"
     height="30"
     x="314.52182"
     y="164.74586" />
  <rect
     style="fill:#000000;stroke-width:0.252489"
     id="rect1975-4"
     width="30"
     height="30"
     x="350.70883"
     y="131.48882" />
  <rect
     style="fill:#000000;stroke-width:0.252489"
     id="rect1975-2"
     width="30"
     height="30"
     x="350.70883"
     y="198.00291" />
  <rect
     style="fill:#000000;stroke-width:0.252489"
     id="rect1975-6"
     width="30"
     height="30"
     x="386.89584"
     y="164.74586" />
  <rect
     style="fill:#000000;stroke-width:0.252489"
     id="rect1975-4-3"
     width="30"
     height="30"
     x="350.70883"
     y="164.74586" />
  <rect
     style="fill:#000000;stroke-width:0.252489"
     id="rect1975-7"
     width="30"
     height="30"
     x="314.00623"
     y="40.603699" />
  <rect
     style="fill:#000000;stroke-width:0.252489"
     id="rect1975-4-0"
     width="30"
     height="30"
     x="349.88504"
     y="6.7682514" />
  <rect
     style="fill:#000000;stroke-width:0.252489"
     id="rect1975-2-2"
     width="30"
     height="30"
     x="349.88504"
     y="74.439156" />
  <rect
     style="fill:#000000;stroke-width:0.252489"
     id="rect1975-6-9"
     width="30"
     height="30"
     x="385.76385"
     y="40.603699" />
  <rect
     style="fill:#000000;stroke-width:0.252489"
     id="rect1975-4-3-8"
     width="30"
     height="30"
     x="349.88504"
     y="40.603699" />
</svg>
